<mxfile host="app.diagrams.net" modified="2023-12-06T04:02:18.470Z" agent="Mozilla/5.0 (Windows NT 10.0; Win64; x64) AppleWebKit/537.36 (KHTML, like Gecko) Chrome/119.0.0.0 Safari/537.36 Edg/119.0.0.0" etag="1BGnO1CzJzUMAdICIHLk" version="22.1.5" type="github">
  <diagram name="Page-1" id="e7e014a7-5840-1c2e-5031-d8a46d1fe8dd">
    <mxGraphModel dx="1016" dy="487" grid="1" gridSize="10" guides="1" tooltips="1" connect="1" arrows="1" fold="1" page="1" pageScale="1" pageWidth="1169" pageHeight="826" background="none" math="0" shadow="0">
      <root>
        <mxCell id="0" />
        <mxCell id="1" parent="0" />
        <mxCell id="2" value="Aktor" style="swimlane;whiteSpace=wrap" parent="1" vertex="1">
          <mxGeometry x="70" y="50" width="280" height="570" as="geometry" />
        </mxCell>
        <mxCell id="7" value="Memasukan Username&#xa;dan Password" style="" parent="2" vertex="1">
          <mxGeometry x="40" y="110" width="150" height="50" as="geometry" />
        </mxCell>
        <mxCell id="8" value="Klik Login" style="" parent="2" vertex="1">
          <mxGeometry x="60" y="220" width="110" height="50" as="geometry" />
        </mxCell>
        <mxCell id="9" value="" style="endArrow=open;strokeColor=#FF0000;endFill=1;rounded=0;exitX=0.5;exitY=1;exitDx=0;exitDy=0;entryX=0.5;entryY=0;entryDx=0;entryDy=0;" parent="2" source="7" target="8" edge="1">
          <mxGeometry relative="1" as="geometry" />
        </mxCell>
        <mxCell id="3" value="Sistem" style="swimlane;whiteSpace=wrap" parent="1" vertex="1">
          <mxGeometry x="350" y="50" width="420" height="570" as="geometry" />
        </mxCell>
        <mxCell id="13" value="" style="ellipse;shape=startState;fillColor=#000000;strokeColor=#ff0000;" parent="3" vertex="1">
          <mxGeometry x="60" y="40" width="30" height="30" as="geometry" />
        </mxCell>
        <mxCell id="14" value="" style="edgeStyle=elbowEdgeStyle;elbow=horizontal;verticalAlign=bottom;endArrow=open;endSize=8;strokeColor=#FF0000;endFill=1;rounded=0;exitX=0.496;exitY=0.844;exitDx=0;exitDy=0;exitPerimeter=0;entryX=0.5;entryY=0;entryDx=0;entryDy=0;" parent="3" source="13" target="15" edge="1">
          <mxGeometry x="40" y="20" as="geometry">
            <mxPoint x="55" y="90" as="targetPoint" />
          </mxGeometry>
        </mxCell>
        <mxCell id="15" value="Menampilkan Form&#xa; Login" style="" parent="3" vertex="1">
          <mxGeometry x="20" y="110" width="110" height="50" as="geometry" />
        </mxCell>
        <mxCell id="19" value="" style="endArrow=open;strokeColor=#FF0000;endFill=1;rounded=0;entryX=0.5;entryY=0;entryDx=0;entryDy=0;exitX=0.5;exitY=1;exitDx=0;exitDy=0;" parent="3" source="21" target="aqqeG1nzHgkP0eQrsc-u-85" edge="1">
          <mxGeometry relative="1" as="geometry">
            <mxPoint x="64.41" y="269.9999999999999" as="sourcePoint" />
            <mxPoint x="64" y="300" as="targetPoint" />
          </mxGeometry>
        </mxCell>
        <mxCell id="21" value="" style="rhombus;fillColor=#ffffc0;strokeColor=#ff0000;" parent="3" vertex="1">
          <mxGeometry x="90" y="220" width="80" height="50" as="geometry" />
        </mxCell>
        <mxCell id="25" value="" style="shape=line;strokeWidth=6;strokeColor=#ff0000;rotation=90" parent="3" vertex="1">
          <mxGeometry x="130" y="127.5" width="50" height="15" as="geometry" />
        </mxCell>
        <mxCell id="26" value="" style="edgeStyle=elbowEdgeStyle;elbow=horizontal;verticalAlign=bottom;endArrow=open;endSize=8;strokeColor=#FF0000;endFill=1;rounded=0;exitX=0.513;exitY=0.467;exitDx=0;exitDy=0;exitPerimeter=0;entryX=1;entryY=0.5;entryDx=0;entryDy=0;" parent="3" source="25" target="15" edge="1">
          <mxGeometry x="130" y="90" as="geometry">
            <mxPoint x="230" y="140" as="targetPoint" />
            <mxPoint x="150" y="135" as="sourcePoint" />
          </mxGeometry>
        </mxCell>
        <mxCell id="aqqeG1nzHgkP0eQrsc-u-81" value="Data == null" style="text;html=1;align=center;verticalAlign=middle;resizable=0;points=[];autosize=1;strokeColor=none;fillColor=none;" vertex="1" parent="3">
          <mxGeometry x="30" y="215" width="90" height="30" as="geometry" />
        </mxCell>
        <mxCell id="18" value="Menampilkan PopUp &#xa;&quot;Username dan Password&#xa;Tidak boleh kosong&quot;" style="" parent="3" vertex="1">
          <mxGeometry x="220" y="215" width="155" height="60" as="geometry" />
        </mxCell>
        <mxCell id="aqqeG1nzHgkP0eQrsc-u-84" value="Menampilkan PopUp &#xa;&quot;Username atau Password&#xa;salah&quot;" style="" vertex="1" parent="3">
          <mxGeometry x="220" y="300" width="155" height="60" as="geometry" />
        </mxCell>
        <mxCell id="aqqeG1nzHgkP0eQrsc-u-85" value="" style="rhombus;fillColor=#ffffc0;strokeColor=#ff0000;" vertex="1" parent="3">
          <mxGeometry x="90" y="305" width="80" height="50" as="geometry" />
        </mxCell>
        <mxCell id="aqqeG1nzHgkP0eQrsc-u-88" value="Menampilkan &#xa;Halaman&#xa;Beranda" style="" vertex="1" parent="3">
          <mxGeometry x="77.19" y="400" width="105.62" height="60" as="geometry" />
        </mxCell>
        <mxCell id="aqqeG1nzHgkP0eQrsc-u-89" value="" style="endArrow=open;strokeColor=#FF0000;endFill=1;rounded=0;exitX=1;exitY=0.5;exitDx=0;exitDy=0;entryX=0;entryY=0.5;entryDx=0;entryDy=0;" edge="1" parent="3" source="21" target="18">
          <mxGeometry relative="1" as="geometry">
            <mxPoint x="100" y="244.57999999999998" as="sourcePoint" />
            <mxPoint x="150" y="245" as="targetPoint" />
          </mxGeometry>
        </mxCell>
        <mxCell id="aqqeG1nzHgkP0eQrsc-u-90" value="" style="endArrow=open;strokeColor=#FF0000;endFill=1;rounded=0;exitX=1;exitY=0.5;exitDx=0;exitDy=0;entryX=0;entryY=0.5;entryDx=0;entryDy=0;" edge="1" parent="3" source="aqqeG1nzHgkP0eQrsc-u-85" target="aqqeG1nzHgkP0eQrsc-u-84">
          <mxGeometry relative="1" as="geometry">
            <mxPoint x="115" y="255" as="sourcePoint" />
            <mxPoint x="190" y="390" as="targetPoint" />
          </mxGeometry>
        </mxCell>
        <mxCell id="aqqeG1nzHgkP0eQrsc-u-91" value="" style="endArrow=open;strokeColor=#FF0000;endFill=1;rounded=0;entryX=0.5;entryY=0;entryDx=0;entryDy=0;exitX=0.5;exitY=1;exitDx=0;exitDy=0;" edge="1" parent="3" source="aqqeG1nzHgkP0eQrsc-u-85" target="aqqeG1nzHgkP0eQrsc-u-88">
          <mxGeometry relative="1" as="geometry">
            <mxPoint x="74.40999999999997" y="279.9999999999999" as="sourcePoint" />
            <mxPoint x="75" y="310" as="targetPoint" />
          </mxGeometry>
        </mxCell>
        <mxCell id="aqqeG1nzHgkP0eQrsc-u-93" value="" style="ellipse;html=1;shape=endState;fillColor=#000000;strokeColor=#ff0000;" vertex="1" parent="3">
          <mxGeometry x="220" y="490" width="40" height="40" as="geometry" />
        </mxCell>
        <mxCell id="aqqeG1nzHgkP0eQrsc-u-92" value="" style="endArrow=open;strokeColor=#FF0000;endFill=1;rounded=0;exitX=0.5;exitY=1;exitDx=0;exitDy=0;entryX=0;entryY=0.5;entryDx=0;entryDy=0;" edge="1" parent="3" source="aqqeG1nzHgkP0eQrsc-u-88" target="aqqeG1nzHgkP0eQrsc-u-93">
          <mxGeometry relative="1" as="geometry">
            <mxPoint x="75" y="360" as="sourcePoint" />
            <mxPoint x="210" y="510" as="targetPoint" />
            <Array as="points">
              <mxPoint x="130" y="510" />
            </Array>
          </mxGeometry>
        </mxCell>
        <mxCell id="aqqeG1nzHgkP0eQrsc-u-94" value="Data == Valid" style="text;html=1;align=center;verticalAlign=middle;resizable=0;points=[];autosize=1;strokeColor=none;fillColor=none;" vertex="1" parent="3">
          <mxGeometry x="25" y="300" width="100" height="30" as="geometry" />
        </mxCell>
        <mxCell id="aqqeG1nzHgkP0eQrsc-u-95" value="Iya" style="text;html=1;align=center;verticalAlign=middle;resizable=0;points=[];autosize=1;strokeColor=none;fillColor=none;" vertex="1" parent="3">
          <mxGeometry x="160" y="220" width="40" height="30" as="geometry" />
        </mxCell>
        <mxCell id="aqqeG1nzHgkP0eQrsc-u-97" value="Tidak" style="text;html=1;align=center;verticalAlign=middle;resizable=0;points=[];autosize=1;strokeColor=none;fillColor=none;" vertex="1" parent="3">
          <mxGeometry x="80" y="260" width="50" height="30" as="geometry" />
        </mxCell>
        <mxCell id="aqqeG1nzHgkP0eQrsc-u-98" value="Iya" style="text;html=1;align=center;verticalAlign=middle;resizable=0;points=[];autosize=1;strokeColor=none;fillColor=none;" vertex="1" parent="3">
          <mxGeometry x="90" y="360" width="40" height="30" as="geometry" />
        </mxCell>
        <mxCell id="aqqeG1nzHgkP0eQrsc-u-99" value="End" style="text;html=1;align=center;verticalAlign=middle;resizable=0;points=[];autosize=1;strokeColor=none;fillColor=none;" vertex="1" parent="3">
          <mxGeometry x="215" y="468" width="40" height="30" as="geometry" />
        </mxCell>
        <mxCell id="aqqeG1nzHgkP0eQrsc-u-100" value="" style="endArrow=open;strokeColor=#FF0000;endFill=1;rounded=0;entryX=0.25;entryY=0.5;entryDx=0;entryDy=0;exitX=1;exitY=0.75;exitDx=0;exitDy=0;entryPerimeter=0;" edge="1" parent="3" source="aqqeG1nzHgkP0eQrsc-u-84" target="25">
          <mxGeometry relative="1" as="geometry">
            <mxPoint x="390" y="340" as="sourcePoint" />
            <mxPoint x="382.80999999999995" y="150" as="targetPoint" />
            <Array as="points">
              <mxPoint x="400" y="345" />
              <mxPoint x="400" y="123" />
            </Array>
          </mxGeometry>
        </mxCell>
        <mxCell id="aqqeG1nzHgkP0eQrsc-u-101" value="" style="endArrow=open;strokeColor=#FF0000;endFill=1;rounded=0;entryX=0.75;entryY=0.5;entryDx=0;entryDy=0;entryPerimeter=0;exitX=1;exitY=0.5;exitDx=0;exitDy=0;" edge="1" parent="3" source="18" target="25">
          <mxGeometry relative="1" as="geometry">
            <mxPoint x="380" y="250" as="sourcePoint" />
            <mxPoint x="150" y="28" as="targetPoint" />
            <Array as="points">
              <mxPoint x="390" y="245" />
              <mxPoint x="390" y="148" />
            </Array>
          </mxGeometry>
        </mxCell>
        <mxCell id="aqqeG1nzHgkP0eQrsc-u-96" value="Tidak" style="text;html=1;align=center;verticalAlign=middle;resizable=0;points=[];autosize=1;strokeColor=none;fillColor=none;" vertex="1" parent="3">
          <mxGeometry x="155" y="300" width="50" height="30" as="geometry" />
        </mxCell>
        <mxCell id="aqqeG1nzHgkP0eQrsc-u-41" value="Thread 1" style="swimlane;whiteSpace=wrap" vertex="1" parent="1">
          <mxGeometry x="70" y="690" width="280" height="570" as="geometry" />
        </mxCell>
        <mxCell id="aqqeG1nzHgkP0eQrsc-u-42" value="" style="ellipse;shape=startState;fillColor=#000000;strokeColor=#ff0000;" vertex="1" parent="aqqeG1nzHgkP0eQrsc-u-41">
          <mxGeometry x="100" y="40" width="30" height="30" as="geometry" />
        </mxCell>
        <mxCell id="aqqeG1nzHgkP0eQrsc-u-43" value="" style="edgeStyle=elbowEdgeStyle;elbow=horizontal;verticalAlign=bottom;endArrow=open;endSize=8;strokeColor=#FF0000;endFill=1;rounded=0" edge="1" parent="aqqeG1nzHgkP0eQrsc-u-41" source="aqqeG1nzHgkP0eQrsc-u-42" target="aqqeG1nzHgkP0eQrsc-u-44">
          <mxGeometry x="100" y="40" as="geometry">
            <mxPoint x="115" y="110" as="targetPoint" />
          </mxGeometry>
        </mxCell>
        <mxCell id="aqqeG1nzHgkP0eQrsc-u-44" value="idle" style="" vertex="1" parent="aqqeG1nzHgkP0eQrsc-u-41">
          <mxGeometry x="60" y="110" width="110" height="50" as="geometry" />
        </mxCell>
        <mxCell id="aqqeG1nzHgkP0eQrsc-u-45" value="user action" style="" vertex="1" parent="aqqeG1nzHgkP0eQrsc-u-41">
          <mxGeometry x="60" y="220" width="110" height="50" as="geometry" />
        </mxCell>
        <mxCell id="aqqeG1nzHgkP0eQrsc-u-46" value="" style="endArrow=open;strokeColor=#FF0000;endFill=1;rounded=0" edge="1" parent="aqqeG1nzHgkP0eQrsc-u-41" source="aqqeG1nzHgkP0eQrsc-u-44" target="aqqeG1nzHgkP0eQrsc-u-45">
          <mxGeometry relative="1" as="geometry" />
        </mxCell>
        <mxCell id="aqqeG1nzHgkP0eQrsc-u-47" value="post command" style="" vertex="1" parent="aqqeG1nzHgkP0eQrsc-u-41">
          <mxGeometry x="60" y="325" width="110" height="50" as="geometry" />
        </mxCell>
        <mxCell id="aqqeG1nzHgkP0eQrsc-u-48" value="" style="endArrow=open;strokeColor=#FF0000;endFill=1;rounded=0" edge="1" parent="aqqeG1nzHgkP0eQrsc-u-41" source="aqqeG1nzHgkP0eQrsc-u-45" target="aqqeG1nzHgkP0eQrsc-u-47">
          <mxGeometry relative="1" as="geometry" />
        </mxCell>
        <mxCell id="aqqeG1nzHgkP0eQrsc-u-49" value="" style="edgeStyle=elbowEdgeStyle;elbow=horizontal;strokeColor=#FF0000;endArrow=open;endFill=1;rounded=0" edge="1" parent="aqqeG1nzHgkP0eQrsc-u-41" source="aqqeG1nzHgkP0eQrsc-u-47" target="aqqeG1nzHgkP0eQrsc-u-44">
          <mxGeometry width="100" height="100" relative="1" as="geometry">
            <mxPoint x="160" y="290" as="sourcePoint" />
            <mxPoint x="260" y="190" as="targetPoint" />
            <Array as="points">
              <mxPoint x="30" y="250" />
            </Array>
          </mxGeometry>
        </mxCell>
        <mxCell id="aqqeG1nzHgkP0eQrsc-u-50" value="Thread 2" style="swimlane;whiteSpace=wrap" vertex="1" parent="1">
          <mxGeometry x="350" y="690" width="280" height="570" as="geometry" />
        </mxCell>
        <mxCell id="aqqeG1nzHgkP0eQrsc-u-51" value="" style="ellipse;shape=startState;fillColor=#000000;strokeColor=#ff0000;" vertex="1" parent="aqqeG1nzHgkP0eQrsc-u-50">
          <mxGeometry x="60" y="40" width="30" height="30" as="geometry" />
        </mxCell>
        <mxCell id="aqqeG1nzHgkP0eQrsc-u-52" value="" style="edgeStyle=elbowEdgeStyle;elbow=horizontal;verticalAlign=bottom;endArrow=open;endSize=8;strokeColor=#FF0000;endFill=1;rounded=0" edge="1" parent="aqqeG1nzHgkP0eQrsc-u-50" source="aqqeG1nzHgkP0eQrsc-u-51" target="aqqeG1nzHgkP0eQrsc-u-53">
          <mxGeometry x="40" y="20" as="geometry">
            <mxPoint x="55" y="90" as="targetPoint" />
          </mxGeometry>
        </mxCell>
        <mxCell id="aqqeG1nzHgkP0eQrsc-u-53" value="idle" style="" vertex="1" parent="aqqeG1nzHgkP0eQrsc-u-50">
          <mxGeometry x="20" y="110" width="110" height="50" as="geometry" />
        </mxCell>
        <mxCell id="aqqeG1nzHgkP0eQrsc-u-54" value="check for &#xa;new commands" style="" vertex="1" parent="aqqeG1nzHgkP0eQrsc-u-50">
          <mxGeometry x="20" y="220" width="110" height="50" as="geometry" />
        </mxCell>
        <mxCell id="aqqeG1nzHgkP0eQrsc-u-55" value="" style="endArrow=open;strokeColor=#FF0000;endFill=1;rounded=0" edge="1" parent="aqqeG1nzHgkP0eQrsc-u-50" source="aqqeG1nzHgkP0eQrsc-u-53" target="aqqeG1nzHgkP0eQrsc-u-54">
          <mxGeometry relative="1" as="geometry" />
        </mxCell>
        <mxCell id="aqqeG1nzHgkP0eQrsc-u-56" value="command queue" style="" vertex="1" parent="aqqeG1nzHgkP0eQrsc-u-50">
          <mxGeometry x="20" y="325" width="110" height="50" as="geometry" />
        </mxCell>
        <mxCell id="aqqeG1nzHgkP0eQrsc-u-57" value="" style="endArrow=open;strokeColor=#FF0000;endFill=1;rounded=0" edge="1" parent="aqqeG1nzHgkP0eQrsc-u-50" source="aqqeG1nzHgkP0eQrsc-u-54" target="aqqeG1nzHgkP0eQrsc-u-56">
          <mxGeometry relative="1" as="geometry" />
        </mxCell>
        <mxCell id="aqqeG1nzHgkP0eQrsc-u-58" value="queue empty" style="rhombus;fillColor=#ffffc0;strokeColor=#ff0000;" vertex="1" parent="aqqeG1nzHgkP0eQrsc-u-50">
          <mxGeometry x="150" y="225" width="80" height="40" as="geometry" />
        </mxCell>
        <mxCell id="aqqeG1nzHgkP0eQrsc-u-59" value="yes" style="edgeStyle=elbowEdgeStyle;elbow=horizontal;align=left;verticalAlign=bottom;endArrow=open;endSize=8;strokeColor=#FF0000;exitX=0.5;exitY=0;endFill=1;rounded=0;entryX=0.75;entryY=0.5;entryPerimeter=0" edge="1" parent="aqqeG1nzHgkP0eQrsc-u-50" source="aqqeG1nzHgkP0eQrsc-u-58" target="aqqeG1nzHgkP0eQrsc-u-62">
          <mxGeometry x="-1" relative="1" as="geometry">
            <mxPoint x="160" y="150" as="targetPoint" />
            <Array as="points">
              <mxPoint x="190" y="180" />
            </Array>
          </mxGeometry>
        </mxCell>
        <mxCell id="aqqeG1nzHgkP0eQrsc-u-60" value="no" style="edgeStyle=elbowEdgeStyle;elbow=horizontal;align=left;verticalAlign=top;endArrow=open;endSize=8;strokeColor=#FF0000;endFill=1;rounded=0" edge="1" parent="aqqeG1nzHgkP0eQrsc-u-50" source="aqqeG1nzHgkP0eQrsc-u-58" target="aqqeG1nzHgkP0eQrsc-u-64">
          <mxGeometry x="-1" relative="1" as="geometry">
            <mxPoint x="190" y="305" as="targetPoint" />
          </mxGeometry>
        </mxCell>
        <mxCell id="aqqeG1nzHgkP0eQrsc-u-61" value="" style="endArrow=open;strokeColor=#FF0000;endFill=1;rounded=0" edge="1" parent="aqqeG1nzHgkP0eQrsc-u-50" source="aqqeG1nzHgkP0eQrsc-u-54" target="aqqeG1nzHgkP0eQrsc-u-58">
          <mxGeometry relative="1" as="geometry" />
        </mxCell>
        <mxCell id="aqqeG1nzHgkP0eQrsc-u-62" value="" style="shape=line;strokeWidth=6;strokeColor=#ff0000;rotation=90" vertex="1" parent="aqqeG1nzHgkP0eQrsc-u-50">
          <mxGeometry x="130" y="127.5" width="50" height="15" as="geometry" />
        </mxCell>
        <mxCell id="aqqeG1nzHgkP0eQrsc-u-63" value="" style="edgeStyle=elbowEdgeStyle;elbow=horizontal;verticalAlign=bottom;endArrow=open;endSize=8;strokeColor=#FF0000;endFill=1;rounded=0" edge="1" parent="aqqeG1nzHgkP0eQrsc-u-50" source="aqqeG1nzHgkP0eQrsc-u-62" target="aqqeG1nzHgkP0eQrsc-u-53">
          <mxGeometry x="130" y="90" as="geometry">
            <mxPoint x="230" y="140" as="targetPoint" />
          </mxGeometry>
        </mxCell>
        <mxCell id="aqqeG1nzHgkP0eQrsc-u-64" value="dispatch&#xa;command&#xa;worker thread" style="" vertex="1" parent="aqqeG1nzHgkP0eQrsc-u-50">
          <mxGeometry x="140" y="325" width="110" height="50" as="geometry" />
        </mxCell>
        <mxCell id="aqqeG1nzHgkP0eQrsc-u-65" value="critical&#xa;section" style="shape=note;whiteSpace=wrap;size=17" vertex="1" parent="aqqeG1nzHgkP0eQrsc-u-50">
          <mxGeometry x="105" y="490" width="100" height="50" as="geometry" />
        </mxCell>
        <mxCell id="aqqeG1nzHgkP0eQrsc-u-66" value="" style="endArrow=none;strokeColor=#FF0000;endFill=0;rounded=0;dashed=1" edge="1" parent="aqqeG1nzHgkP0eQrsc-u-50" source="aqqeG1nzHgkP0eQrsc-u-56" target="aqqeG1nzHgkP0eQrsc-u-65">
          <mxGeometry relative="1" as="geometry" />
        </mxCell>
        <mxCell id="aqqeG1nzHgkP0eQrsc-u-67" value="" style="whiteSpace=wrap;strokeColor=#FF0000;fillColor=#FF0000" vertex="1" parent="aqqeG1nzHgkP0eQrsc-u-50">
          <mxGeometry x="245" y="395" width="5" height="45" as="geometry" />
        </mxCell>
        <mxCell id="aqqeG1nzHgkP0eQrsc-u-68" value="" style="edgeStyle=elbowEdgeStyle;elbow=horizontal;entryX=0;entryY=0.5;strokeColor=#FF0000;endArrow=open;endFill=1;rounded=0" edge="1" parent="aqqeG1nzHgkP0eQrsc-u-50" source="aqqeG1nzHgkP0eQrsc-u-64" target="aqqeG1nzHgkP0eQrsc-u-67">
          <mxGeometry width="100" height="100" relative="1" as="geometry">
            <mxPoint x="60" y="480" as="sourcePoint" />
            <mxPoint x="160" y="380" as="targetPoint" />
            <Array as="points">
              <mxPoint x="195" y="400" />
            </Array>
          </mxGeometry>
        </mxCell>
        <mxCell id="aqqeG1nzHgkP0eQrsc-u-69" value="Thread 3" style="swimlane;whiteSpace=wrap" vertex="1" parent="1">
          <mxGeometry x="630" y="690" width="280" height="570" as="geometry" />
        </mxCell>
        <mxCell id="aqqeG1nzHgkP0eQrsc-u-70" value="process&#xa;command" style="" vertex="1" parent="aqqeG1nzHgkP0eQrsc-u-69">
          <mxGeometry x="90" y="405" width="110" height="50" as="geometry" />
        </mxCell>
        <mxCell id="aqqeG1nzHgkP0eQrsc-u-71" value="" style="edgeStyle=elbowEdgeStyle;elbow=horizontal;strokeColor=#FF0000;endArrow=open;endFill=1;rounded=0;entryX=0.25;entryY=0.5;entryPerimeter=0" edge="1" parent="aqqeG1nzHgkP0eQrsc-u-69" target="aqqeG1nzHgkP0eQrsc-u-62">
          <mxGeometry width="100" height="100" relative="1" as="geometry">
            <mxPoint x="-30" y="410" as="sourcePoint" />
            <mxPoint x="-120" y="120" as="targetPoint" />
            <Array as="points">
              <mxPoint x="-10" y="135" />
            </Array>
          </mxGeometry>
        </mxCell>
        <mxCell id="aqqeG1nzHgkP0eQrsc-u-72" value="" style="edgeStyle=none;strokeColor=#FF0000;endArrow=open;endFill=1;rounded=0" edge="1" parent="aqqeG1nzHgkP0eQrsc-u-69" target="aqqeG1nzHgkP0eQrsc-u-70">
          <mxGeometry width="100" height="100" relative="1" as="geometry">
            <mxPoint x="-30" y="429.5" as="sourcePoint" />
            <mxPoint x="90" y="429.5" as="targetPoint" />
          </mxGeometry>
        </mxCell>
        <mxCell id="aqqeG1nzHgkP0eQrsc-u-73" value="" style="ellipse;shape=endState;fillColor=#000000;strokeColor=#ff0000" vertex="1" parent="aqqeG1nzHgkP0eQrsc-u-69">
          <mxGeometry x="130" y="500" width="30" height="30" as="geometry" />
        </mxCell>
        <mxCell id="aqqeG1nzHgkP0eQrsc-u-74" value="" style="endArrow=open;strokeColor=#FF0000;endFill=1;rounded=0" edge="1" parent="aqqeG1nzHgkP0eQrsc-u-69" source="aqqeG1nzHgkP0eQrsc-u-70" target="aqqeG1nzHgkP0eQrsc-u-73">
          <mxGeometry relative="1" as="geometry" />
        </mxCell>
        <mxCell id="aqqeG1nzHgkP0eQrsc-u-75" value="" style="endArrow=open;strokeColor=#FF0000;endFill=1;rounded=0" edge="1" parent="1" source="aqqeG1nzHgkP0eQrsc-u-47" target="aqqeG1nzHgkP0eQrsc-u-56">
          <mxGeometry relative="1" as="geometry" />
        </mxCell>
        <mxCell id="aqqeG1nzHgkP0eQrsc-u-76" value="Login User" style="text;strokeColor=none;fillColor=none;html=1;fontSize=24;fontStyle=1;verticalAlign=middle;align=center;" vertex="1" parent="1">
          <mxGeometry x="80" y="10" width="100" height="40" as="geometry" />
        </mxCell>
        <mxCell id="aqqeG1nzHgkP0eQrsc-u-78" value="" style="edgeStyle=elbowEdgeStyle;elbow=horizontal;verticalAlign=bottom;endArrow=open;endSize=8;strokeColor=#FF0000;endFill=1;rounded=0;entryX=1;entryY=0.5;entryDx=0;entryDy=0;exitX=0;exitY=0.5;exitDx=0;exitDy=0;" edge="1" parent="1" source="15" target="7">
          <mxGeometry x="40" y="20" as="geometry">
            <mxPoint x="300" y="210" as="targetPoint" />
            <mxPoint x="300" y="170" as="sourcePoint" />
          </mxGeometry>
        </mxCell>
        <mxCell id="aqqeG1nzHgkP0eQrsc-u-80" value="" style="endArrow=open;strokeColor=#FF0000;endFill=1;rounded=0;entryX=0;entryY=0.5;entryDx=0;entryDy=0;exitX=1;exitY=0.5;exitDx=0;exitDy=0;exitPerimeter=0;" edge="1" parent="1" source="8" target="21">
          <mxGeometry relative="1" as="geometry">
            <mxPoint x="240" y="300" as="sourcePoint" />
            <mxPoint x="370" y="294.9999999999999" as="targetPoint" />
          </mxGeometry>
        </mxCell>
      </root>
    </mxGraphModel>
  </diagram>
</mxfile>
